<?xml version="1.0" encoding="UTF-8"?>
<svg version="1.1" xmlns="http://www.w3.org/2000/svg" width="214" height="193">
<path d="M0 0 C-0.49659447 4.46935022 -1.89338888 5.89338888 -5 9 C-6.05011047 10.86928379 -6.95146552 12.78602739 -7.87109375 14.72265625 C-10.65558259 20.33980848 -13.98300946 25.69537887 -17.6875 30.75 C-19.99978102 33.8229168 -19.99978102 33.8229168 -21.375 36.75 C-23.1845752 40.3691504 -25.21156668 43.79513187 -27.3125 47.25 C-28.05863645 48.48434919 -28.80472931 49.71872473 -29.55078125 50.953125 C-29.94168945 51.59862305 -30.33259766 52.24412109 -30.73535156 52.90917969 C-35.99959401 61.6124562 -41.17460442 70.36683703 -46.3203125 79.140625 C-52.76680859 90.08750515 -58.53829676 97.89299209 -70 104 C-79.59634656 109.49171455 -89.00440636 115.27431465 -98.39453125 121.109375 C-103.65168177 124.36525867 -108.91229201 127.55329769 -114.33984375 130.515625 C-118.19468245 132.66663632 -122.0035754 134.89392121 -125.8125 137.125 C-126.9257666 137.773479 -126.9257666 137.773479 -128.06152344 138.43505859 C-131.52852462 140.471547 -134.80247455 142.55607637 -138 145 C-139.5062041 145.87970673 -141.02754107 146.73398579 -142.5625 147.5625 C-145.14193116 148.95878567 -147.55380249 150.36920166 -150 152 C-150.99 152 -151.98 152 -153 152 C-152.27706248 144.28866648 -146.04346508 137.50334727 -141.75 131.3125 C-141.27618896 130.62551025 -140.80237793 129.93852051 -140.31420898 129.23071289 C-138.02890721 125.91960704 -135.73364806 122.61572745 -133.42578125 119.3203125 C-129.69773737 113.98967821 -126.15904891 108.68628805 -123 103 C-119.29721378 97.02421629 -115.44964664 91.1484099 -111.53125 85.3125 C-109.21584216 81.81576163 -106.984967 78.26624785 -104.7421875 74.72265625 C-102.59908381 71.37345608 -100.39151314 68.07087371 -98.1640625 64.77734375 C-96.95417178 63.00495588 -96.95417178 63.00495588 -96 61 C-95.34 61 -94.68 61 -94 61 C-93.67322266 60.12408203 -93.67322266 60.12408203 -93.33984375 59.23046875 C-91.56412825 56.27439425 -89.4907477 55.10522535 -86.5625 53.3125 C-85.59441406 52.71050781 -84.62632813 52.10851563 -83.62890625 51.48828125 C-81 50 -81 50 -78 49 C-78 48.34 -78 47.68 -78 47 C-77.48050781 46.75765625 -76.96101563 46.5153125 -76.42578125 46.265625 C-72.1572557 44.21420792 -68.67473427 42.01516658 -65 39 C-63.82456602 38.29206817 -62.63614082 37.60538673 -61.4375 36.9375 C-58.16314305 35.19000358 -58.16314305 35.19000358 -56 33.5 C-53.71346252 31.78509689 -51.28016902 30.42911585 -48.7890625 29.03515625 C-47.15320321 28.08864378 -45.57253575 27.04835717 -44 26 C-41 24 -41 24 -37.875 22.25 C-31.53430973 18.68686874 -25.59511678 14.43540169 -19.578125 10.359375 C-15.63963539 7.70578271 -11.66416079 5.12320927 -7.625 2.625 C-6.40683594 1.87089844 -6.40683594 1.87089844 -5.1640625 1.1015625 C-3 0 -3 0 0 0 Z M-43.9375 41.0625 C-45.43603516 42.03316406 -45.43603516 42.03316406 -46.96484375 43.0234375 C-47.96644531 43.67570312 -48.96804687 44.32796875 -50 45 C-51.6650605 46.06501529 -53.33172285 47.12753048 -55 48.1875 C-55.88945312 48.7546875 -56.77890625 49.321875 -57.6953125 49.90625 C-60.37242538 51.60238771 -63.05538949 53.28804963 -65.7421875 54.96875 C-66.58652344 55.49831299 -67.43085937 56.02787598 -68.30078125 56.57348633 C-69.98669727 57.6305416 -71.67414344 58.68516125 -73.36328125 59.73706055 C-82.47105277 65.21833097 -82.47105277 65.21833097 -88 74 C-88.70549766 77.80968738 -88.72031407 79.94954198 -86.5 83.1875 C-82.10457698 88.46391518 -82.10457698 88.46391518 -75.75 90.3125 C-70.69273801 89.8910615 -68.08653474 87.77741848 -64.3125 84.5625 C-61.64564081 81.38766764 -59.81590373 77.673987 -57.8125 74.0625 C-56.87596693 72.37446318 -55.93831491 70.68704701 -55 69 C-54.68305176 68.42910645 -54.36610352 67.85821289 -54.03955078 67.27001953 C-52.99006084 65.38529195 -51.93316792 63.50486695 -50.875 61.625 C-50.36996948 60.71439819 -50.36996948 60.71439819 -49.85473633 59.78540039 C-48.16492365 56.79721 -46.51399742 54.33442618 -44 52 C-43.31653318 50.34015202 -42.65411685 48.67163195 -42 47 C-40.38965802 43.96786874 -38.70188794 40.98155177 -37 38 C-39.94171817 38 -41.48669213 39.46261825 -43.9375 41.0625 Z M-98 88 C-99.90184315 90.80847771 -101.79531209 93.62251001 -103.6875 96.4375 C-104.48317383 97.6121582 -104.48317383 97.6121582 -105.29492188 98.81054688 C-108.81966005 104.0652179 -112.01947392 109.41871243 -115 115 C-110.48874774 113.78966403 -107.38476888 111.98020992 -103.71875 109.22265625 C-101.30205664 107.50350847 -98.64973692 106.32486846 -96 105 C-93.61103886 103.39929932 -91.31273806 101.71142616 -89 100 C-91.00253932 95.26672525 -94.3936338 91.6063662 -98 88 Z " fill="#141414" transform="translate(193,4)"/>
<path d="M0 0 C6.27945533 5.63678186 9.42069023 14.24690564 9.94921875 22.59765625 C9.96597656 23.39042969 9.98273438 24.18320313 10 25 C10.02707031 26.00933594 10.05414063 27.01867187 10.08203125 28.05859375 C10.12502992 31.37730899 10.08344217 34.68218027 10 38 C9.97486328 39.41345703 9.97486328 39.41345703 9.94921875 40.85546875 C9.3591171 52.53948146 3.55030446 65.05149101 -4 74 C-4.66 74 -5.32 74 -6 74 C-6.26425781 74.59941406 -6.52851563 75.19882813 -6.80078125 75.81640625 C-8.76240282 79.38821881 -11.84202351 81.50209237 -15 84 C-15.5259375 84.43570313 -16.051875 84.87140625 -16.59375 85.3203125 C-26.97403002 93.41082487 -39.79401751 96.39286729 -52.6875 96.375 C-54.13310303 96.37693359 -54.13310303 96.37693359 -55.60791016 96.37890625 C-63.33600116 96.26485762 -69.83542948 95.0280449 -77 92 C-76.95359375 92.60585937 -76.9071875 93.21171875 -76.859375 93.8359375 C-76.40257434 104.44023842 -80.63195526 113.9937961 -87.67578125 121.875 C-94.23819602 128.17926595 -102.50426699 132.25676095 -111.6875 132.375 C-115.7953411 132.2046589 -115.7953411 132.2046589 -117 131 C-117.38624599 126.9613384 -117.48506824 122.91914893 -117.56982422 118.86401367 C-117.60638368 117.50468114 -117.66086051 116.14570361 -117.73388672 114.7878418 C-118.32764982 103.5761168 -118.32764982 103.5761168 -115.09277344 99.73583984 C-111.17385357 97.00191522 -108.83963603 96 -104 96 C-103.67 102.93 -103.34 109.86 -103 117 C-96.55076188 112.05558411 -92.88617944 108.00036785 -91 100 C-90.82295387 97.4381962 -90.65687396 94.87561814 -90.5 92.3125 C-89.99089674 87.87474151 -89.63767349 85.69573807 -86.59765625 82.37890625 C-82.55372015 79.70897161 -79.15118048 77.85195528 -74.21875 78.19140625 C-71.41042459 78.9802153 -68.73384647 79.98467875 -66 81 C-51.23181349 84.51183409 -37.08962504 81.93822454 -24.0078125 74.39453125 C-21.00378058 72.30807328 -19.17112867 69.93740937 -17 67 C-16.00537623 65.99465252 -15.00505041 64.99492396 -14 64 C-5.16581685 54.22350398 -2.67357835 42.05899244 -2.82226562 29.18896484 C-3.17666316 24.82422812 -4.58575605 20.72829462 -5.86376953 16.5612793 C-7.12993433 11.97591264 -6.97023647 9.3256401 -4.875 5.0625 C-2.52898551 1.26449275 -2.52898551 1.26449275 0 0 Z " fill="#171717" transform="translate(170,52)"/>
<path d="M0 0 C11.6325 -0.061875 23.265 -0.12375 35.25 -0.1875 C38.8996582 -0.21481201 42.54931641 -0.24212402 46.30957031 -0.27026367 C50.82568359 -0.28381348 50.82568359 -0.28381348 52.95135498 -0.28633118 C54.4108557 -0.29088623 55.87034636 -0.30132776 57.32977295 -0.31672668 C68.76215891 -0.43114263 79.8752364 0.0938879 90 6 C88.64461399 9.18072998 87.31239069 10.89009834 84.4375 12.8125 C83.81746094 13.25207031 83.19742188 13.69164062 82.55859375 14.14453125 C79.41921672 15.19418555 76.98610542 14.67169868 73.75236511 14.27278137 C68.32916436 13.73529885 62.87929209 13.75805713 57.43359375 13.68359375 C55.52163963 13.6524221 55.52163963 13.6524221 53.57106018 13.62062073 C50.21254549 13.56662126 46.8540179 13.5162817 43.49542236 13.46777344 C40.05614366 13.41717931 36.61694409 13.36169291 33.17773438 13.30664062 C26.4518863 13.19995909 19.7259783 13.09810865 13 13 C13.16371094 14.22831543 13.32742187 15.45663086 13.49609375 16.72216797 C14.14955591 22.63430056 14.10680814 28.50377369 14.0625 34.4453125 C14.05871338 35.61456268 14.05492676 36.78381287 14.05102539 37.98849487 C14.0388787 41.70070199 14.02025084 45.4128288 14 49.125 C13.97335393 54.02343551 13.95338975 58.9218316 13.9375 63.8203125 C13.92920166 64.93713409 13.92090332 66.05395569 13.91235352 67.20462036 C13.88409664 73.67650595 13.88409664 73.67650595 14.5847168 80.09716797 C15 83 15 83 13.70703125 85.625 C13.08183594 86.40875 12.45664063 87.1925 11.8125 88 C8.84031521 91.8876177 6.33470139 95.70414944 4 100 C2.68 100 1.36 100 0 100 C0 67 0 34 0 0 Z " fill="#1A1A1A" transform="translate(53,21)"/>
<path d="M0 0 C-0.48547205 4.36924844 -1.78781757 6.07983415 -5 9 C-5.99 10.485 -5.99 10.485 -7 12 C-7.103125 11.360625 -7.20625 10.72125 -7.3125 10.0625 C-7.539375 9.381875 -7.76625 8.70125 -8 8 C-10.94729537 6.84188612 -10.94729537 6.84188612 -14 7 C-12.54261898 6.01941648 -11.08406325 5.04057868 -9.625 4.0625 C-8.81289062 3.51722656 -8.00078125 2.97195312 -7.1640625 2.41015625 C-4.37589399 0.5933172 -3.39494243 0 0 0 Z " fill="#3B3B3B" transform="translate(193,4)"/>
<path d="M0 0 C0.66 1.32 1.32 2.64 2 4 C0.68 5.65 -0.64 7.3 -2 9 C-2.6875 6.1875 -2.6875 6.1875 -3 3 C-1.5625 1.125 -1.5625 1.125 0 0 Z " fill="#2A2A2A" transform="translate(147,75)"/>
</svg>
